<svg width="27" height="28" viewBox="0 0 27 28" fill="none" xmlns="http://www.w3.org/2000/svg">
<path d="M8.10034 18.05H20.2503C20.9928 18.05 21.6003 18.6575 21.6003 19.4C21.6003 20.1425 20.9928 20.75 20.2503 20.75H6.75034C6.00784 20.75 5.40034 20.1425 5.40034 19.4V5.89995H2.70034C1.95784 5.89995 1.35034 5.29245 1.35034 4.54995C1.35034 3.80745 1.95784 3.19995 2.70034 3.19995H6.75034C7.49284 3.19995 8.10034 3.80745 8.10034 4.54995V7.24995H25.6503L20.2503 16.7H8.10034V18.05ZM7.42534 22.1C8.54584 22.1 9.45034 23.0045 9.45034 24.125C9.45034 25.2455 8.54584 26.15 7.42534 26.15C6.30484 26.15 5.40034 25.2455 5.40034 24.125C5.40034 23.0045 6.30484 22.1 7.42534 22.1ZM19.5753 22.1C20.6958 22.1 21.6003 23.0045 21.6003 24.125C21.6003 25.2455 20.6958 26.15 19.5753 26.15C18.4548 26.15 17.5503 25.2455 17.5503 24.125C17.5503 23.0045 18.4548 22.1 19.5753 22.1Z" fill="white"/>
</svg>
