<svg width="28" height="28" viewBox="0 0 28 28" fill="none" xmlns="http://www.w3.org/2000/svg">
<path d="M21.0351 19.1941L25.8535 24.0114L24.2616 25.6033L19.4444 20.7849C17.652 22.2218 15.4225 23.0033 13.1252 23C7.53624 23 3.00024 18.464 3.00024 12.875C3.00024 7.286 7.53624 2.75 13.1252 2.75C18.7142 2.75 23.2502 7.286 23.2502 12.875C23.2535 15.1723 22.472 17.4017 21.0351 19.1941ZM18.7784 18.3594C20.2061 16.8911 21.0035 14.923 21.0002 12.875C21.0002 8.5235 17.4756 5 13.1252 5C8.77374 5 5.25024 8.5235 5.25024 12.875C5.25024 17.2254 8.77374 20.75 13.1252 20.75C15.1732 20.7532 17.1414 19.9559 18.6096 18.5281L18.7784 18.3594V18.3594Z" fill="white"/>
</svg>
